<svg width="10" height="20" viewBox="0 0 10 20" fill="none" xmlns="http://www.w3.org/2000/svg">
<path fill-rule="evenodd" clip-rule="evenodd" d="M2.41082 10.0786V19.7496C2.41082 19.8894 2.52101 20 2.6602 20H6.23841C6.3776 20 6.48778 19.8894 6.48778 19.7496V9.9214H9.0801C9.20769 9.9214 9.31787 9.82242 9.32947 9.6885L9.57884 6.73071C9.59044 6.58515 9.47445 6.45706 9.32947 6.45706H6.48778V4.35517C6.48778 3.86026 6.88794 3.46434 7.37508 3.46434H9.37586C9.51504 3.46434 9.62524 3.35371 9.62524 3.21397V0.250364C9.62524 0.110626 9.51504 0 9.37586 0H6.00064C4.01725 0 2.41082 1.61281 2.41082 3.60408V6.45706H0.624622C0.485437 6.45706 0.375244 6.56769 0.375244 6.70742V9.66521C0.375244 9.80495 0.485437 9.91558 0.624622 9.91558H2.41082V10.0786Z" fill="white"/>
</svg>
