<svg width="20" height="20" viewBox="0 0 20 20" fill="none" xmlns="http://www.w3.org/2000/svg">
<path d="M15.2594 3.68509C14.6117 3.68509 14.0813 4.20994 14.0813 4.86321C14.0813 5.51089 14.6061 6.04132 15.2594 6.04132C15.9071 6.04132 16.4375 5.51647 16.4375 4.86321C16.4375 4.20994 15.9071 3.68509 15.2594 3.68509ZM10.0333 5.19263C7.30853 5.19263 5.09188 7.40927 5.09188 10.134C5.09188 12.8587 7.30853 15.0754 10.0333 15.0754C12.758 15.0754 14.9746 12.8587 14.9746 10.134C14.9746 7.40927 12.758 5.19263 10.0333 5.19263ZM10.0333 13.2942C8.28564 13.2942 6.86742 11.876 6.86742 10.1284C6.86742 8.38079 8.28564 6.96259 10.0333 6.96259C11.7809 6.96259 13.1991 8.38079 13.1991 10.1284C13.1935 11.876 11.7753 13.2942 10.0333 13.2942ZM19.9998 6.02457C19.9998 2.69682 17.3029 0 13.9752 0H6.02431C2.69656 0 -0.000244141 2.69682 -0.000244141 6.02457V13.9754C-0.000244141 17.3032 2.69656 20 6.02431 20H13.9752C17.3029 20 19.9998 17.3032 19.9998 13.9754V6.02457ZM18.1126 13.981C18.1126 16.2647 16.2588 18.1184 13.9752 18.1184H6.02431C3.74067 18.1184 1.88697 16.2647 1.88697 13.981V6.02457C1.88697 3.74093 3.74067 1.88721 6.02431 1.88721H13.9752C16.2588 1.88721 18.1126 3.74093 18.1126 6.02457V13.981Z" fill="white"/>
</svg>
