<svg width="20" height="18" viewBox="0 0 20 18" fill="none" xmlns="http://www.w3.org/2000/svg">
<path d="M19.927 2.73938C19.2924 3.0274 18.5919 3.20142 17.9094 3.31543C18.2327 3.26142 18.7116 2.66738 18.9032 2.43336C19.1966 2.06734 19.442 1.65331 19.5738 1.20328C19.5917 1.16727 19.6037 1.12527 19.5678 1.09527C19.5259 1.07727 19.4959 1.08927 19.46 1.10127C18.6937 1.5093 17.9034 1.80932 17.0593 2.01933C16.9874 2.03734 16.9395 2.01933 16.8916 1.97733C16.8198 1.89933 16.7539 1.82132 16.6821 1.76132C16.3289 1.46129 15.9457 1.22128 15.5206 1.04727C14.9579 0.819249 14.3412 0.717242 13.7365 0.759245C13.1498 0.795247 12.5691 0.963259 12.0482 1.23928C11.5214 1.5153 11.0544 1.89332 10.6832 2.35536C10.3001 2.82939 10.0127 3.39343 9.869 3.99347C9.7313 4.56951 9.73728 5.13955 9.82709 5.7216C9.83906 5.8176 9.83307 5.8296 9.74327 5.8176C6.45048 5.32557 3.71447 4.14348 1.49932 1.61131C1.40353 1.5033 1.34965 1.5033 1.27182 1.61731C0.301939 3.07541 0.774906 5.41557 1.98426 6.56765C2.1459 6.72367 2.31353 6.87368 2.49314 7.01169C2.42728 7.02369 1.61906 6.93968 0.900632 6.56765C0.804841 6.50765 0.75694 6.54365 0.744967 6.65166C0.73898 6.80767 0.750959 6.95168 0.768919 7.12569C0.954513 8.6018 1.97827 9.9699 3.37321 10.5039C3.54085 10.5759 3.72046 10.6359 3.90006 10.6659C3.58276 10.7379 3.25348 10.786 2.33748 10.7139C2.22373 10.6899 2.18182 10.75 2.22373 10.858C2.91222 12.7361 4.39098 13.2941 5.50455 13.6062C5.65422 13.6302 5.80389 13.6302 5.95356 13.6662C5.94758 13.6782 5.93561 13.6782 5.92962 13.6902C5.56442 14.2542 4.28322 14.6682 3.69052 14.8782C2.60689 15.2563 1.43346 15.4243 0.289966 15.3163C0.104372 15.2923 0.0684525 15.2923 0.0205573 15.3163C-0.0273378 15.3463 0.0145683 15.3883 0.0744372 15.4363C0.307926 15.5923 0.541411 15.7243 0.780887 15.8563C1.5053 16.2403 2.26564 16.5464 3.05591 16.7684C7.13897 17.8965 11.7429 17.0684 14.8082 14.0142C17.2149 11.614 18.0591 8.30778 18.0591 4.99554C18.0591 4.86353 18.2147 4.79153 18.3045 4.72552C18.9332 4.25149 19.4301 3.68745 19.8971 3.05741C20.0048 2.9134 19.9928 2.78739 19.9928 2.73938C19.9928 2.73338 19.9928 2.72138 19.9928 2.72138C20.0048 2.68538 20.0108 2.70338 19.927 2.73938Z" fill="white"/>
</svg>
